<?xml version="1.0" encoding="UTF-8" standalone="no"?><!-- Generator: Gravit.io --><svg xmlns="http://www.w3.org/2000/svg" xmlns:xlink="http://www.w3.org/1999/xlink" style="isolation:isolate" viewBox="0 0 240 240" width="240pt" height="240pt"><defs><clipPath id="_clipPath_82KqXH4QCysyqi8bhQNyADXBlcAyrCJR"><rect width="240" height="240"/></clipPath></defs><g clip-path="url(#_clipPath_82KqXH4QCysyqi8bhQNyADXBlcAyrCJR)"><rect width="240" height="240" style="fill:rgb(0,0,0)" fill-opacity="0"/><path d=" M 175.693 199.95 C 178.483 202.78 180.043 206.61 180.023 210.58 C 180.003 214.56 178.403 218.37 175.573 221.17 C 172.743 223.96 168.913 225.52 164.943 225.5 C 160.963 225.48 157.153 223.88 154.353 221.05 L 64.154 129.75 Q 59.976 124.911 59.976 119.44 Q 59.976 113.969 64.154 109.158 L 154.413 18.89 C 157.233 16.08 161.043 14.5 165.023 14.5 C 169.003 14.5 172.813 16.08 175.633 18.89 C 178.443 21.71 180.023 25.52 180.023 29.5 C 180.023 33.48 178.443 37.29 175.633 40.11 L 96.173 119.56 L 175.693 199.95 Z " fill="rgb(0,0,0)"/></g></svg>