<?xml version="1.0" encoding="UTF-8" standalone="no"?><!-- Generator: Gravit.io --><svg xmlns="http://www.w3.org/2000/svg" xmlns:xlink="http://www.w3.org/1999/xlink" style="isolation:isolate" viewBox="0 0 240 240" width="240pt" height="240pt"><defs><clipPath id="_clipPath_1EG11FqmbR17Q0tuVB7hhLRj81HFBbYy"><rect width="240" height="240"/></clipPath></defs><g clip-path="url(#_clipPath_1EG11FqmbR17Q0tuVB7hhLRj81HFBbYy)"><rect width="240" height="240" style="fill:rgb(0,0,0)" fill-opacity="0"/><path d=" M 206.424 -0.067 L 33.576 -0.067 C 24.671 -0.067 16.131 3.47 9.834 9.767 C 3.537 16.064 0 24.604 0 33.509 L 0 206.491 C 0.025 215.389 3.57 223.914 9.862 230.206 C 16.153 236.497 24.679 240.042 33.576 240.067 L 206.424 240.067 C 215.321 240.042 223.847 236.497 230.138 230.206 C 236.43 223.914 239.975 215.389 240 206.491 L 240 33.509 C 240 29.099 239.132 24.733 237.444 20.66 C 235.757 16.586 233.284 12.885 230.166 9.767 C 227.048 6.649 223.347 4.176 219.273 2.489 C 215.199 0.801 210.834 -0.067 206.424 -0.067 Z  M 13.43 33.509 C 13.43 28.166 15.553 23.042 19.331 19.264 C 23.109 15.486 28.233 13.363 33.576 13.363 L 206.424 13.363 C 211.767 13.363 216.891 15.486 220.669 19.264 C 224.447 23.042 226.57 28.166 226.57 33.509 L 226.57 149.815 L 174.46 97.706 C 170.667 93.962 165.553 91.863 160.224 91.863 C 154.895 91.863 149.78 93.962 145.988 97.706 L 84.745 159.082 C 83.463 160.312 81.754 160.999 79.978 160.999 C 78.201 160.999 76.493 160.312 75.21 159.082 L 67.689 151.561 C 63.875 147.859 58.768 145.789 53.453 145.789 C 48.137 145.789 43.031 147.859 39.216 151.561 L 13.43 177.348 L 13.43 33.509 Z  M 226.57 206.491 C 226.57 211.834 224.447 216.958 220.669 220.736 C 216.891 224.514 211.767 226.637 206.424 226.637 L 33.576 226.637 C 28.233 226.637 23.109 224.514 19.331 220.736 C 15.553 216.958 13.43 211.834 13.43 206.491 L 13.43 196.419 L 48.819 161.097 C 50.081 159.881 51.768 159.206 53.52 159.216 C 55.312 159.205 57.042 159.877 58.355 161.097 L 65.741 168.618 C 69.534 172.361 74.649 174.46 79.978 174.46 C 85.307 174.46 90.421 172.361 94.214 168.618 L 155.59 107.241 C 156.215 106.612 156.957 106.112 157.776 105.771 C 158.594 105.43 159.472 105.255 160.358 105.255 C 161.245 105.255 162.122 105.43 162.941 105.771 C 163.759 106.112 164.502 106.612 165.126 107.241 L 226.637 168.752 L 226.57 206.491 Z " fill="rgb(68,68,68)"/><path d=" M 67.689 100.66 C 61.048 100.66 54.557 98.691 49.035 95.002 C 43.514 91.313 39.21 86.069 36.669 79.934 C 34.128 73.798 33.463 67.047 34.758 60.534 C 36.054 54.021 39.251 48.038 43.947 43.343 C 48.643 38.647 54.625 35.449 61.139 34.154 C 67.652 32.858 74.402 33.523 80.538 36.064 C 86.673 38.606 91.917 42.909 95.606 48.431 C 99.295 53.952 101.265 60.444 101.265 67.084 C 101.265 75.99 97.727 84.53 91.431 90.826 C 85.134 97.123 76.594 100.66 67.689 100.66 Z  M 67.689 46.939 C 63.704 46.939 59.81 48.121 56.497 50.334 C 53.184 52.548 50.602 55.694 49.077 59.375 C 47.552 63.056 47.153 67.107 47.93 71.015 C 48.708 74.922 50.626 78.512 53.444 81.33 C 56.261 84.147 59.851 86.066 63.759 86.843 C 67.666 87.62 71.717 87.221 75.398 85.697 C 79.079 84.172 82.226 81.589 84.439 78.277 C 86.653 74.964 87.834 71.069 87.834 67.084 C 87.834 61.742 85.712 56.617 81.934 52.839 C 78.156 49.061 73.032 46.939 67.689 46.939 Z " fill="rgb(68,68,68)"/></g></svg>