<?xml version="1.0" encoding="UTF-8" standalone="no"?><!-- Generator: Gravit.io --><svg xmlns="http://www.w3.org/2000/svg" xmlns:xlink="http://www.w3.org/1999/xlink" style="isolation:isolate" viewBox="0 0 240 240" width="240pt" height="240pt"><defs><clipPath id="_clipPath_MTYOTBHqyLAFsVMQVnOXnbtC5zjvVmz5"><rect width="240" height="240"/></clipPath></defs><g clip-path="url(#_clipPath_MTYOTBHqyLAFsVMQVnOXnbtC5zjvVmz5)"><rect width="240" height="240" style="fill:#444444" fill-opacity="0"/><path d=" M 155.852 147.727 C 169.637 132.051 178 111.495 178 89 C 178 39.88 138.12 0 89 0 C 39.88 0 0 39.88 0 89 C 0 138.12 39.88 178 89 178 C 111.027 178 131.195 169.981 146.743 156.705 L 151.267 161 L 151.267 171.267 L 220 240 L 240 220 L 171.267 151.267 L 160 151.267 L 155.852 147.727 Z  M 26.867 89 C 26.867 54.708 54.708 26.867 89 26.867 C 123.292 26.867 151.133 54.708 151.133 89 C 151.133 123.292 123.292 151.133 89 151.133 C 54.708 151.133 26.867 123.292 26.867 89 Z " fill-rule="evenodd" fill="#444444"/></g></svg>